<mxfile type="github" version="13.9.9" etag="9VbJGSvFU8bxWzCeE_Ia" agent="5.0 (Windows NT 10.0; Win64; x64) AppleWebKit/537.36 (KHTML, like Gecko) Chrome/70.0.3538.102 Safari/537.36 Edge/18.18363" modified="2020-11-16T04:24:28.096Z" host="app.diagrams.net">
  <diagram id="6a731a19-8d31-9384-78a2-239565b7b9f0" name="Page-1">
    <mxGraphModel grid="1" shadow="0" math="0" background="#ffffff" pageHeight="1169" pageWidth="827" pageScale="1" page="1" fold="1" arrows="1" connect="1" tooltips="1" guides="1" gridSize="10" dy="802" dx="924">
      <root>
        <mxCell id="0" />
        <mxCell id="1" parent="0" />
        <mxCell id="2086" value="" parent="1" vertex="1" style="rounded=1;whiteSpace=wrap;html=1;strokeColor=none;fillColor=#BAC8D3;fontSize=24;fontColor=#23445D;align=center;opacity=60;">
          <mxGeometry as="geometry" height="260" width="160" y="420" x="715" />
        </mxCell>
        <mxCell id="2087" value="&lt;font color=&quot;#23445d&quot;&gt;WAN&lt;/font&gt;" parent="1" vertex="1" style="rounded=1;whiteSpace=wrap;html=1;strokeColor=none;fillColor=none;fontSize=14;fontColor=#742B21;align=center;fontStyle=1">
          <mxGeometry as="geometry" height="19" width="73" y="434" x="759" />
        </mxCell>
        <mxCell id="2088" value="" parent="1" vertex="1" style="rounded=1;whiteSpace=wrap;html=1;strokeColor=none;fillColor=#BAC8D3;fontSize=24;fontColor=#23445D;align=center;opacity=60;">
          <mxGeometry as="geometry" height="247" width="260" y="769" x="1354" />
        </mxCell>
        <mxCell id="2089" value="" parent="1" vertex="1" style="rounded=1;whiteSpace=wrap;html=1;strokeColor=none;fillColor=#BAC8D3;fontSize=24;fontColor=#23445D;align=center;opacity=60;">
          <mxGeometry as="geometry" height="380" width="273" y="760" x="650" />
        </mxCell>
        <mxCell id="2090" value="" parent="1" vertex="1" style="rounded=1;whiteSpace=wrap;html=1;strokeColor=none;fillColor=#BAC8D3;fontSize=24;fontColor=#23445D;align=center;opacity=60;">
          <mxGeometry as="geometry" height="260" width="160" y="420" x="1403" />
        </mxCell>
        <mxCell id="2091" value="" parent="1" vertex="1" style="rounded=1;whiteSpace=wrap;html=1;strokeColor=none;fillColor=#BAC8D3;fontSize=24;fontColor=#23445D;align=center;opacity=60;">
          <mxGeometry as="geometry" height="615" width="160" y="525" x="1123" />
        </mxCell>
        <mxCell id="2092" value="" parent="1" vertex="1" style="rounded=1;whiteSpace=wrap;html=1;strokeColor=none;fillColor=#BAC8D3;fontSize=24;fontColor=#23445D;align=center;opacity=60;">
          <mxGeometry as="geometry" height="300" width="260" y="680" x="350" />
        </mxCell>
        <mxCell id="2093" value="" parent="1" vertex="1" style="rounded=1;whiteSpace=wrap;html=1;strokeColor=none;fillColor=#BAC8D3;fontSize=24;fontColor=#23445D;align=center;opacity=60;">
          <mxGeometry as="geometry" height="631" width="290" y="529" x="28" />
        </mxCell>
        <mxCell id="2094" value="" parent="1" vertex="1" style="rounded=1;whiteSpace=wrap;html=1;strokeColor=none;fillColor=#BAC8D3;fontSize=24;fontColor=#23445D;align=center;opacity=60;">
          <mxGeometry as="geometry" height="210" width="450" y="30" x="1160" />
        </mxCell>
        <mxCell id="2095" value="" parent="1" vertex="1" style="rounded=1;whiteSpace=wrap;html=1;strokeColor=none;fillColor=#BAC8D3;fontSize=24;fontColor=#23445D;align=center;opacity=60;">
          <mxGeometry as="geometry" height="200" width="690" y="30" x="30" />
        </mxCell>
        <mxCell id="2096" value="" parent="1" vertex="1" style="shape=mxgraph.cisco.computers_and_peripherals.workstation;html=1;dashed=0;fillColor=#10739E;strokeColor=#ffffff;strokeWidth=2;verticalLabelPosition=bottom;verticalAlign=top;fontFamily=Helvetica;fontSize=36;fontColor=#FFB366">
          <mxGeometry as="geometry" height="62" width="83" y="95" x="60" />
        </mxCell>
        <mxCell id="2097" value="" parent="1" vertex="1" style="shape=mxgraph.cisco.servers.fileserver;html=1;dashed=0;fillColor=#10739E;strokeColor=#ffffff;strokeWidth=2;verticalLabelPosition=bottom;verticalAlign=top;fontFamily=Helvetica;fontSize=36;fontColor=#FFB366">
          <mxGeometry as="geometry" height="62" width="43" y="94" x="178" />
        </mxCell>
        <mxCell id="2098" value="" parent="1" vertex="1" style="shape=mxgraph.cisco.servers.fileserver;html=1;dashed=0;fillColor=#10739E;strokeColor=#ffffff;strokeWidth=2;verticalLabelPosition=bottom;verticalAlign=top;fontFamily=Helvetica;fontSize=36;fontColor=#FFB366">
          <mxGeometry as="geometry" height="62" width="43" y="94" x="382" />
        </mxCell>
        <mxCell id="2099" value="" parent="1" vertex="1" style="shape=mxgraph.cisco.servers.file_server;html=1;dashed=0;fillColor=#10739E;strokeColor=#ffffff;strokeWidth=2;verticalLabelPosition=bottom;verticalAlign=top;fontFamily=Helvetica;fontSize=36;fontColor=#FFB366">
          <mxGeometry as="geometry" height="58" width="43" y="99" x="316" />
        </mxCell>
        <mxCell id="2100" value="" parent="1" vertex="1" style="shape=mxgraph.cisco.servers.storage_server;html=1;dashed=0;fillColor=#10739E;strokeColor=#ffffff;strokeWidth=2;verticalLabelPosition=bottom;verticalAlign=top;fontFamily=Helvetica;fontSize=36;fontColor=#FFB366">
          <mxGeometry as="geometry" height="83" width="54" y="73" x="240" />
        </mxCell>
        <mxCell id="2101" value="" parent="1" vertex="1" style="shape=mxgraph.cisco.computers_and_peripherals.ibm_mini_as400;html=1;dashed=0;fillColor=#10739E;strokeColor=#ffffff;strokeWidth=2;verticalLabelPosition=bottom;verticalAlign=top;fontFamily=Helvetica;fontSize=36;fontColor=#FFB366">
          <mxGeometry as="geometry" height="62" width="43" y="95" x="439" />
        </mxCell>
        <mxCell id="2102" value="" parent="1" vertex="1" style="shape=mxgraph.cisco.computers_and_peripherals.ibm_mainframe;html=1;dashed=0;fillColor=#10739E;strokeColor=#ffffff;strokeWidth=2;verticalLabelPosition=bottom;verticalAlign=top;fontFamily=Helvetica;fontSize=36;fontColor=#FFB366">
          <mxGeometry as="geometry" height="70" width="50" y="87" x="508" />
        </mxCell>
        <mxCell id="2103" value="" parent="1" vertex="1" style="shape=mxgraph.cisco.servers.fileserver;html=1;dashed=0;fillColor=#10739E;strokeColor=#ffffff;strokeWidth=2;verticalLabelPosition=bottom;verticalAlign=top;fontFamily=Helvetica;fontSize=36;fontColor=#FFB366">
          <mxGeometry as="geometry" height="62" width="43" y="97" x="1240" />
        </mxCell>
        <mxCell id="2104" value="" parent="1" vertex="1" style="shape=mxgraph.cisco.servers.fileserver;html=1;dashed=0;fillColor=#10739E;strokeColor=#ffffff;strokeWidth=2;verticalLabelPosition=bottom;verticalAlign=top;fontFamily=Helvetica;fontSize=36;fontColor=#FFB366">
          <mxGeometry as="geometry" height="62" width="43" y="97" x="1310" />
        </mxCell>
        <mxCell id="2105" value="" parent="1" vertex="1" style="shape=mxgraph.cisco.computers_and_peripherals.ibm_mainframe;html=1;dashed=0;fillColor=#10739E;strokeColor=#ffffff;strokeWidth=2;verticalLabelPosition=bottom;verticalAlign=top;fontFamily=Helvetica;fontSize=36;fontColor=#FFB366">
          <mxGeometry as="geometry" height="70" width="50" y="93" x="1390" />
        </mxCell>
        <mxCell id="2106" value="" parent="1" vertex="1" style="shape=mxgraph.cisco.servers.storage_server;html=1;dashed=0;fillColor=#10739E;strokeColor=#ffffff;strokeWidth=2;verticalLabelPosition=bottom;verticalAlign=top;fontFamily=Helvetica;fontSize=36;fontColor=#FFB366">
          <mxGeometry as="geometry" height="83" width="54" y="81" x="1470" />
        </mxCell>
        <mxCell id="2107" value="" parent="1" vertex="1" style="shape=mxgraph.cisco.switches.workgroup_switch;html=1;dashed=0;fillColor=#10739E;strokeColor=#ffffff;strokeWidth=2;verticalLabelPosition=bottom;verticalAlign=top;fontFamily=Helvetica;fontSize=36;fontColor=#FFB366">
          <mxGeometry as="geometry" height="50" width="101" y="252" x="416" />
        </mxCell>
        <mxCell id="2108" value="" parent="1" vertex="1" style="shape=mxgraph.cisco.security.pix_firewall;html=1;dashed=0;fillColor=#10739E;strokeColor=#ffffff;strokeWidth=2;verticalLabelPosition=bottom;verticalAlign=top;fontFamily=Helvetica;fontSize=36;fontColor=#FFB366">
          <mxGeometry as="geometry" height="51" width="77" y="252" x="1206" />
        </mxCell>
        <mxCell id="2109" value="Internet" parent="1" vertex="1" style="shape=mxgraph.cisco.storage.cloud;html=1;dashed=0;strokeColor=#23445D;fillColor=#ffffff;strokeWidth=2;fontFamily=Helvetica;fontSize=24;fontColor=#23445D;align=center;fontStyle=1">
          <mxGeometry as="geometry" height="106" width="186" y="87" x="847" />
        </mxCell>
        <mxCell id="2110" value="PSTN" parent="1" vertex="1" style="shape=mxgraph.cisco.storage.cloud;html=1;dashed=0;strokeColor=#23445D;fillColor=#ffffff;strokeWidth=2;fontFamily=Helvetica;fontSize=24;fontColor=#23445D;fontStyle=1">
          <mxGeometry as="geometry" height="106" width="186" y="210" x="847" />
        </mxCell>
        <mxCell id="2111" value="" parent="1" vertex="1" style="shape=mxgraph.cisco.servers.communications_server;html=1;dashed=0;fillColor=#10739E;strokeColor=#ffffff;strokeWidth=2;verticalLabelPosition=bottom;verticalAlign=top;fontFamily=Helvetica;fontSize=36;fontColor=#FFB366">
          <mxGeometry as="geometry" height="56" width="54" y="246" x="1020" />
        </mxCell>
        <mxCell id="2112" value="" parent="1" vertex="1" style="shape=mxgraph.cisco.switches.layer_3_switch;html=1;dashed=0;fillColor=#10739E;strokeColor=#ffffff;strokeWidth=2;verticalLabelPosition=bottom;verticalAlign=top;fontFamily=Helvetica;fontSize=36;fontColor=#FFB366">
          <mxGeometry as="geometry" height="64" width="64" y="370" x="631" />
        </mxCell>
        <mxCell id="2113" value="" parent="1" vertex="1" style="shape=mxgraph.cisco.switches.layer_3_switch;html=1;dashed=0;fillColor=#10739E;strokeColor=#ffffff;strokeWidth=2;verticalLabelPosition=bottom;verticalAlign=top;fontFamily=Helvetica;fontSize=36;fontColor=#FFB366">
          <mxGeometry as="geometry" height="64" width="64" y="370" x="1240" />
        </mxCell>
        <mxCell id="2114" value="" parent="1" vertex="1" style="shape=mxgraph.cisco.switches.workgroup_switch;html=1;dashed=0;fillColor=#10739E;strokeColor=#ffffff;strokeWidth=2;verticalLabelPosition=bottom;verticalAlign=top;fontFamily=Helvetica;fontSize=36;fontColor=#FFB366">
          <mxGeometry as="geometry" height="50" width="101" y="464" x="142" />
        </mxCell>
        <mxCell id="2115" value="" parent="1" vertex="1" style="shape=mxgraph.cisco.switches.workgroup_switch;html=1;dashed=0;fillColor=#10739E;strokeColor=#ffffff;strokeWidth=2;verticalLabelPosition=bottom;verticalAlign=top;fontFamily=Helvetica;fontSize=36;fontColor=#FFB366">
          <mxGeometry as="geometry" height="50" width="101" y="460" x="958" />
        </mxCell>
        <mxCell id="2116" value="" parent="1" vertex="1" style="shape=mxgraph.cisco.switches.workgroup_switch;html=1;dashed=0;fillColor=#10739E;strokeColor=#ffffff;strokeWidth=2;verticalLabelPosition=bottom;verticalAlign=top;fontFamily=Helvetica;fontSize=36;fontColor=#FFB366">
          <mxGeometry as="geometry" height="50" width="101" y="476" x="500" />
        </mxCell>
        <mxCell id="2117" value="" parent="1" vertex="1" style="shape=mxgraph.cisco.switches.workgroup_switch;html=1;dashed=0;fillColor=#10739E;strokeColor=#ffffff;strokeWidth=2;verticalLabelPosition=bottom;verticalAlign=top;fontFamily=Helvetica;fontSize=36;fontColor=#FFB366">
          <mxGeometry as="geometry" height="50" width="101" y="460" x="1209" />
        </mxCell>
        <mxCell id="2118" value="" parent="1" vertex="1" style="shape=mxgraph.cisco.switches.workgroup_switch;html=1;dashed=0;fillColor=#10739E;strokeColor=#ffffff;strokeWidth=2;verticalLabelPosition=bottom;verticalAlign=top;fontFamily=Helvetica;fontSize=36;fontColor=#FFB366">
          <mxGeometry as="geometry" height="50" width="101" y="696" x="361" />
        </mxCell>
        <mxCell id="2119" value="" parent="1" vertex="1" style="shape=mxgraph.cisco.switches.workgroup_switch;html=1;dashed=0;fillColor=#10739E;strokeColor=#ffffff;strokeWidth=2;verticalLabelPosition=bottom;verticalAlign=top;fontFamily=Helvetica;fontSize=36;fontColor=#FFB366">
          <mxGeometry as="geometry" height="50" width="101" y="854" x="483" />
        </mxCell>
        <mxCell id="2120" value="" parent="1" vertex="1" style="shape=mxgraph.cisco.misc.access_point;html=1;dashed=0;fillColor=#10739E;strokeColor=#ffffff;strokeWidth=2;verticalLabelPosition=bottom;verticalAlign=top;fontFamily=Helvetica;fontSize=36;fontColor=#FFB366">
          <mxGeometry as="geometry" height="34" width="75" y="555" x="223" />
        </mxCell>
        <mxCell id="2121" value="" parent="1" vertex="1" style="shape=mxgraph.cisco.misc.access_point;html=1;dashed=0;fillColor=#10739E;strokeColor=#ffffff;strokeWidth=2;verticalLabelPosition=bottom;verticalAlign=top;fontFamily=Helvetica;fontSize=36;fontColor=#FFB366">
          <mxGeometry as="geometry" height="34" width="75" y="623" x="223" />
        </mxCell>
        <mxCell id="2122" value="" parent="1" vertex="1" style="shape=mxgraph.cisco.misc.access_point;html=1;dashed=0;fillColor=#10739E;strokeColor=#ffffff;strokeWidth=2;verticalLabelPosition=bottom;verticalAlign=top;fontFamily=Helvetica;fontSize=36;fontColor=#FFB366">
          <mxGeometry as="geometry" height="34" width="75" y="852" x="223" />
        </mxCell>
        <mxCell id="2123" value="" parent="1" vertex="1" style="shape=mxgraph.cisco.misc.access_point;html=1;dashed=0;fillColor=#10739E;strokeColor=#ffffff;strokeWidth=2;verticalLabelPosition=bottom;verticalAlign=top;fontFamily=Helvetica;fontSize=36;fontColor=#FFB366">
          <mxGeometry as="geometry" height="34" width="75" y="705" x="223" />
        </mxCell>
        <mxCell id="2124" value="" parent="1" vertex="1" style="shape=mxgraph.cisco.misc.access_point;html=1;dashed=0;fillColor=#10739E;strokeColor=#ffffff;strokeWidth=2;verticalLabelPosition=bottom;verticalAlign=top;fontFamily=Helvetica;fontSize=36;fontColor=#FFB366">
          <mxGeometry as="geometry" height="34" width="75" y="930" x="223" />
        </mxCell>
        <mxCell id="2125" value="" parent="1" vertex="1" style="shape=mxgraph.cisco.misc.access_point;html=1;dashed=0;fillColor=#10739E;strokeColor=#ffffff;strokeWidth=2;verticalLabelPosition=bottom;verticalAlign=top;fontFamily=Helvetica;fontSize=36;fontColor=#FFB366">
          <mxGeometry as="geometry" height="34" width="75" y="779" x="223" />
        </mxCell>
        <mxCell id="2126" value="" parent="1" vertex="1" style="shape=mxgraph.cisco.hubs_and_gateways.100baset_hub;html=1;dashed=0;fillColor=#10739E;strokeColor=#ffffff;strokeWidth=2;verticalLabelPosition=bottom;verticalAlign=top;fontFamily=Helvetica;fontSize=36;fontColor=#FFB366">
          <mxGeometry as="geometry" height="45" width="90" y="544" x="59" />
        </mxCell>
        <mxCell id="2127" value="" parent="1" vertex="1" style="shape=mxgraph.cisco.hubs_and_gateways.100baset_hub;html=1;dashed=0;fillColor=#10739E;strokeColor=#ffffff;strokeWidth=2;verticalLabelPosition=bottom;verticalAlign=top;fontFamily=Helvetica;fontSize=36;fontColor=#FFB366">
          <mxGeometry as="geometry" height="45" width="90" y="841" x="59" />
        </mxCell>
        <mxCell id="2128" value="" parent="1" vertex="1" style="shape=mxgraph.cisco.hubs_and_gateways.100baset_hub;html=1;dashed=0;fillColor=#10739E;strokeColor=#ffffff;strokeWidth=2;verticalLabelPosition=bottom;verticalAlign=top;fontFamily=Helvetica;fontSize=36;fontColor=#FFB366">
          <mxGeometry as="geometry" height="45" width="90" y="615" x="59" />
        </mxCell>
        <mxCell id="2129" value="" parent="1" vertex="1" style="shape=mxgraph.cisco.hubs_and_gateways.100baset_hub;html=1;dashed=0;fillColor=#10739E;strokeColor=#ffffff;strokeWidth=2;verticalLabelPosition=bottom;verticalAlign=top;fontFamily=Helvetica;fontSize=36;fontColor=#FFB366">
          <mxGeometry as="geometry" height="45" width="90" y="694" x="59" />
        </mxCell>
        <mxCell id="2130" value="" parent="1" vertex="1" style="shape=mxgraph.cisco.hubs_and_gateways.100baset_hub;html=1;dashed=0;fillColor=#10739E;strokeColor=#ffffff;strokeWidth=2;verticalLabelPosition=bottom;verticalAlign=top;fontFamily=Helvetica;fontSize=36;fontColor=#FFB366">
          <mxGeometry as="geometry" height="45" width="90" y="768" x="59" />
        </mxCell>
        <mxCell id="2131" value="" parent="1" vertex="1" style="shape=mxgraph.cisco.misc.token;html=1;dashed=0;strokeColor=#10739E;fillColor=#ffffff;strokeWidth=2;verticalLabelPosition=bottom;verticalAlign=top;fontFamily=Helvetica;fontSize=36;fontColor=#23445D;labelBackgroundColor=none;">
          <mxGeometry as="geometry" height="61" width="59" y="537" x="977" />
        </mxCell>
        <mxCell id="2132" value="" parent="1" vertex="1" style="shape=mxgraph.cisco.routers.router;html=1;dashed=0;fillColor=#10739E;strokeColor=#ffffff;strokeWidth=2;verticalLabelPosition=bottom;verticalAlign=top;fontFamily=Helvetica;fontSize=36;fontColor=#FFB366">
          <mxGeometry as="geometry" height="53" width="78" y="475" x="757" />
        </mxCell>
        <mxCell id="2133" value="" parent="1" vertex="1" style="shape=mxgraph.cisco.routers.router;html=1;dashed=0;fillColor=#10739E;strokeColor=#ffffff;strokeWidth=2;verticalLabelPosition=bottom;verticalAlign=top;fontFamily=Helvetica;fontSize=36;fontColor=#FFB366">
          <mxGeometry as="geometry" height="53" width="78" y="476" x="1444" />
        </mxCell>
        <mxCell id="2134" value="" parent="1" vertex="1" style="shape=mxgraph.cisco.routers.router;html=1;dashed=0;fillColor=#10739E;strokeColor=#ffffff;strokeWidth=2;verticalLabelPosition=bottom;verticalAlign=top;fontFamily=Helvetica;fontSize=36;fontColor=#FFB366">
          <mxGeometry as="geometry" height="53" width="78" y="594" x="757" />
        </mxCell>
        <mxCell id="2135" value="" parent="1" vertex="1" style="shape=mxgraph.cisco.routers.router;html=1;dashed=0;fillColor=#10739E;strokeColor=#ffffff;strokeWidth=2;verticalLabelPosition=bottom;verticalAlign=top;fontFamily=Helvetica;fontSize=36;fontColor=#FFB366">
          <mxGeometry as="geometry" height="53" width="78" y="595" x="1443" />
        </mxCell>
        <mxCell id="2136" value="" parent="1" vertex="1" style="shape=mxgraph.cisco.switches.workgroup_switch;html=1;dashed=0;fillColor=#10739E;strokeColor=#ffffff;strokeWidth=2;verticalLabelPosition=bottom;verticalAlign=top;fontFamily=Helvetica;fontSize=36;fontColor=#FFB366">
          <mxGeometry as="geometry" height="50" width="101" y="694" x="745" />
        </mxCell>
        <mxCell id="2137" value="" parent="1" vertex="1" style="shape=mxgraph.cisco.switches.workgroup_switch;html=1;dashed=0;fillColor=#10739E;strokeColor=#ffffff;strokeWidth=2;verticalLabelPosition=bottom;verticalAlign=top;fontFamily=Helvetica;fontSize=36;fontColor=#FFB366">
          <mxGeometry as="geometry" height="50" width="101" y="691" x="1432" />
        </mxCell>
        <mxCell id="2138" value="" parent="1" vertex="1" style="shape=mxgraph.cisco.routers.router;html=1;dashed=0;fillColor=#10739E;strokeColor=#ffffff;strokeWidth=2;verticalLabelPosition=bottom;verticalAlign=top;fontFamily=Helvetica;fontSize=36;fontColor=#FFB366">
          <mxGeometry as="geometry" height="53" width="78" y="122" x="1020" />
        </mxCell>
        <mxCell id="2139" value="" parent="1" vertex="1" style="shape=mxgraph.cisco.hubs_and_gateways.100baset_hub;html=1;dashed=0;fillColor=#10739E;strokeColor=#ffffff;strokeWidth=2;verticalLabelPosition=bottom;verticalAlign=top;fontFamily=Helvetica;fontSize=36;fontColor=#FFB366">
          <mxGeometry as="geometry" height="45" width="90" y="919" x="59" />
        </mxCell>
        <mxCell id="2140" value="" parent="1" vertex="1" style="shape=mxgraph.cisco.hubs_and_gateways.100baset_hub;html=1;dashed=0;fillColor=#10739E;strokeColor=#ffffff;strokeWidth=2;verticalLabelPosition=bottom;verticalAlign=top;fontFamily=Helvetica;fontSize=36;fontColor=#FFB366">
          <mxGeometry as="geometry" height="45" width="90" y="548" x="1137" />
        </mxCell>
        <mxCell id="2141" value="" parent="1" vertex="1" style="shape=mxgraph.cisco.hubs_and_gateways.100baset_hub;html=1;dashed=0;fillColor=#10739E;strokeColor=#ffffff;strokeWidth=2;verticalLabelPosition=bottom;verticalAlign=top;fontFamily=Helvetica;fontSize=36;fontColor=#FFB366">
          <mxGeometry as="geometry" height="45" width="90" y="845" x="1137" />
        </mxCell>
        <mxCell id="2142" value="" parent="1" vertex="1" style="shape=mxgraph.cisco.hubs_and_gateways.100baset_hub;html=1;dashed=0;fillColor=#10739E;strokeColor=#ffffff;strokeWidth=2;verticalLabelPosition=bottom;verticalAlign=top;fontFamily=Helvetica;fontSize=36;fontColor=#FFB366">
          <mxGeometry as="geometry" height="45" width="90" y="619" x="1137" />
        </mxCell>
        <mxCell id="2143" value="" parent="1" vertex="1" style="shape=mxgraph.cisco.hubs_and_gateways.100baset_hub;html=1;dashed=0;fillColor=#10739E;strokeColor=#ffffff;strokeWidth=2;verticalLabelPosition=bottom;verticalAlign=top;fontFamily=Helvetica;fontSize=36;fontColor=#FFB366">
          <mxGeometry as="geometry" height="45" width="90" y="698" x="1137" />
        </mxCell>
        <mxCell id="2144" value="" parent="1" vertex="1" style="shape=mxgraph.cisco.hubs_and_gateways.100baset_hub;html=1;dashed=0;fillColor=#10739E;strokeColor=#ffffff;strokeWidth=2;verticalLabelPosition=bottom;verticalAlign=top;fontFamily=Helvetica;fontSize=36;fontColor=#FFB366">
          <mxGeometry as="geometry" height="45" width="90" y="772" x="1137" />
        </mxCell>
        <mxCell id="2145" value="" parent="1" vertex="1" style="shape=mxgraph.cisco.hubs_and_gateways.100baset_hub;html=1;dashed=0;fillColor=#10739E;strokeColor=#ffffff;strokeWidth=2;verticalLabelPosition=bottom;verticalAlign=top;fontFamily=Helvetica;fontSize=36;fontColor=#FFB366">
          <mxGeometry as="geometry" height="45" width="90" y="915" x="1137" />
        </mxCell>
        <mxCell id="2146" value="" parent="1" vertex="1" style="shape=mxgraph.cisco.hubs_and_gateways.100baset_hub;html=1;dashed=0;fillColor=#10739E;strokeColor=#ffffff;strokeWidth=2;verticalLabelPosition=bottom;verticalAlign=top;fontFamily=Helvetica;fontSize=36;fontColor=#FFB366">
          <mxGeometry as="geometry" height="45" width="90" y="853" x="673" />
        </mxCell>
        <mxCell id="2147" value="" parent="1" vertex="1" style="shape=mxgraph.cisco.hubs_and_gateways.100baset_hub;html=1;dashed=0;fillColor=#10739E;strokeColor=#ffffff;strokeWidth=2;verticalLabelPosition=bottom;verticalAlign=top;fontFamily=Helvetica;fontSize=36;fontColor=#FFB366">
          <mxGeometry as="geometry" height="45" width="90" y="780" x="673" />
        </mxCell>
        <mxCell id="2148" value="" parent="1" vertex="1" style="shape=mxgraph.cisco.hubs_and_gateways.100baset_hub;html=1;dashed=0;fillColor=#10739E;strokeColor=#ffffff;strokeWidth=2;verticalLabelPosition=bottom;verticalAlign=top;fontFamily=Helvetica;fontSize=36;fontColor=#FFB366">
          <mxGeometry as="geometry" height="45" width="90" y="923" x="673" />
        </mxCell>
        <mxCell id="2149" value="" parent="1" vertex="1" style="shape=mxgraph.cisco.misc.access_point;html=1;dashed=0;fillColor=#10739E;strokeColor=#ffffff;strokeWidth=2;verticalLabelPosition=bottom;verticalAlign=top;fontFamily=Helvetica;fontSize=36;fontColor=#FFB366">
          <mxGeometry as="geometry" height="34" width="79" y="859" x="817" />
        </mxCell>
        <mxCell id="2150" value="" parent="1" vertex="1" style="shape=mxgraph.cisco.misc.access_point;html=1;dashed=0;fillColor=#10739E;strokeColor=#ffffff;strokeWidth=2;verticalLabelPosition=bottom;verticalAlign=top;fontFamily=Helvetica;fontSize=36;fontColor=#FFB366">
          <mxGeometry as="geometry" height="34" width="75" y="933" x="817" />
        </mxCell>
        <mxCell id="2151" value="" parent="1" vertex="1" style="shape=mxgraph.cisco.misc.access_point;html=1;dashed=0;fillColor=#10739E;strokeColor=#ffffff;strokeWidth=2;verticalLabelPosition=bottom;verticalAlign=top;fontFamily=Helvetica;fontSize=36;fontColor=#FFB366">
          <mxGeometry as="geometry" height="34" width="75" y="782" x="817" />
        </mxCell>
        <mxCell id="2152" value="" parent="1" vertex="1" style="line;html=1;strokeColor=#23445D;">
          <mxGeometry as="geometry" height="10" width="697" y="205" x="53" />
        </mxCell>
        <mxCell id="2153" value="" parent="1" vertex="1" style="line;html=1;strokeColor=#23445D;">
          <mxGeometry as="geometry" height="10" width="388" y="207" x="1192" />
        </mxCell>
        <mxCell id="2154" value="" parent="1" vertex="1" style="line;html=1;strokeColor=#23445D;">
          <mxGeometry as="geometry" height="10" width="943" y="340" x="377" />
        </mxCell>
        <mxCell id="2155" value="" parent="1" style="edgeStyle=elbowEdgeStyle;elbow=horizontal;endArrow=none;html=1;strokeColor=#23445D;endFill=0;strokeWidth=4;rounded=1" target="2102" edge="1">
          <mxGeometry as="geometry" height="100" width="100" relative="1">
            <mxPoint as="sourcePoint" y="210" x="533" />
            <mxPoint as="targetPoint" y="170" x="533" />
          </mxGeometry>
        </mxCell>
        <mxCell id="2156" value="" parent="1" style="edgeStyle=elbowEdgeStyle;elbow=horizontal;endArrow=none;html=1;strokeColor=#23445D;endFill=0;strokeWidth=4;rounded=1" target="2101" edge="1">
          <mxGeometry as="geometry" height="100" width="100" relative="1">
            <mxPoint as="sourcePoint" y="210" x="460" />
            <mxPoint as="targetPoint" y="156.94444444444446" x="460.33333333333337" />
          </mxGeometry>
        </mxCell>
        <mxCell id="2157" value="" parent="1" style="edgeStyle=elbowEdgeStyle;elbow=horizontal;endArrow=none;html=1;strokeColor=#23445D;endFill=0;strokeWidth=4;rounded=1" target="2098" edge="1">
          <mxGeometry as="geometry" height="100" width="100" relative="1">
            <mxPoint as="sourcePoint" y="209" x="403" />
            <mxPoint as="targetPoint" y="155.94444444444446" x="403.33333333333337" />
          </mxGeometry>
        </mxCell>
        <mxCell id="2158" value="" parent="1" style="edgeStyle=elbowEdgeStyle;elbow=horizontal;endArrow=none;html=1;strokeColor=#23445D;endFill=0;strokeWidth=4;rounded=1" target="2099" edge="1">
          <mxGeometry as="geometry" height="100" width="100" relative="1">
            <mxPoint as="sourcePoint" y="210" x="337" />
            <mxPoint as="targetPoint" y="156.94444444444446" x="337.33333333333337" />
          </mxGeometry>
        </mxCell>
        <mxCell id="2159" value="" parent="1" style="edgeStyle=elbowEdgeStyle;elbow=horizontal;endArrow=none;html=1;strokeColor=#23445D;endFill=0;strokeWidth=4;rounded=1" target="2100" edge="1">
          <mxGeometry as="geometry" height="100" width="100" relative="1">
            <mxPoint as="sourcePoint" y="210" x="267" />
            <mxPoint as="targetPoint" y="156.94444444444446" x="266.80555555555554" />
          </mxGeometry>
        </mxCell>
        <mxCell id="2160" value="" parent="1" style="edgeStyle=elbowEdgeStyle;elbow=horizontal;endArrow=none;html=1;strokeColor=#23445D;endFill=0;strokeWidth=4;rounded=1" target="2097" edge="1">
          <mxGeometry as="geometry" height="100" width="100" relative="1">
            <mxPoint as="sourcePoint" y="210" x="199" />
            <mxPoint as="targetPoint" y="156.94444444444446" x="198.80555555555554" />
          </mxGeometry>
        </mxCell>
        <mxCell id="2161" value="" parent="1" style="edgeStyle=elbowEdgeStyle;elbow=horizontal;endArrow=none;html=1;strokeColor=#23445D;endFill=0;strokeWidth=4;rounded=1" target="2096" edge="1">
          <mxGeometry as="geometry" height="100" width="100" relative="1">
            <mxPoint as="sourcePoint" y="210" x="96" />
            <mxPoint as="targetPoint" y="156.25" x="96.30555555555554" />
          </mxGeometry>
        </mxCell>
        <mxCell id="2162" value="" parent="1" style="edgeStyle=elbowEdgeStyle;elbow=horizontal;endArrow=none;html=1;strokeColor=#23445D;endFill=0;strokeWidth=4;rounded=1" target="2107" edge="1">
          <mxGeometry as="geometry" height="100" width="100" relative="1">
            <mxPoint as="sourcePoint" y="210" x="465" />
            <mxPoint as="targetPoint" y="240" x="465" />
          </mxGeometry>
        </mxCell>
        <mxCell id="2163" value="" parent="1" style="edgeStyle=elbowEdgeStyle;elbow=horizontal;endArrow=none;html=1;strokeColor=#23445D;endFill=0;strokeWidth=4;rounded=1" edge="1" source="2107">
          <mxGeometry as="geometry" height="100" width="100" relative="1">
            <mxPoint as="sourcePoint" y="303" x="465.0000000000001" />
            <mxPoint as="targetPoint" y="345.0833333333335" x="465.2777777777774" />
          </mxGeometry>
        </mxCell>
        <mxCell id="2164" value="" parent="1" style="edgeStyle=elbowEdgeStyle;elbow=horizontal;endArrow=none;html=1;strokeColor=#23445D;endFill=0;strokeWidth=4;rounded=1" edge="1" source="2103">
          <mxGeometry as="geometry" height="100" width="100" relative="1">
            <mxPoint as="sourcePoint" y="170" x="1259" />
            <mxPoint as="targetPoint" y="212.08333333333348" x="1259.2777777777773" />
          </mxGeometry>
        </mxCell>
        <mxCell id="2165" value="" parent="1" style="edgeStyle=elbowEdgeStyle;elbow=horizontal;endArrow=none;html=1;strokeColor=#23445D;endFill=0;strokeWidth=4;rounded=1" edge="1" source="2104">
          <mxGeometry as="geometry" height="100" width="100" relative="1">
            <mxPoint as="sourcePoint" y="170.00000000000006" x="1331" />
            <mxPoint as="targetPoint" y="212.08333333333348" x="1331.2777777777782" />
          </mxGeometry>
        </mxCell>
        <mxCell id="2166" value="" parent="1" style="edgeStyle=elbowEdgeStyle;elbow=horizontal;endArrow=none;html=1;strokeColor=#23445D;endFill=0;strokeWidth=4;rounded=1" edge="1" source="2105">
          <mxGeometry as="geometry" height="100" width="100" relative="1">
            <mxPoint as="sourcePoint" y="170.00000000000006" x="1415" />
            <mxPoint as="targetPoint" y="212.08333333333348" x="1415.2777777777773" />
          </mxGeometry>
        </mxCell>
        <mxCell id="2167" value="" parent="1" style="edgeStyle=elbowEdgeStyle;elbow=horizontal;endArrow=none;html=1;strokeColor=#23445D;endFill=0;strokeWidth=4;rounded=1" edge="1" source="2106">
          <mxGeometry as="geometry" height="100" width="100" relative="1">
            <mxPoint as="sourcePoint" y="170.00000000000006" x="1500" />
            <mxPoint as="targetPoint" y="212.08333333333348" x="1500.2777777777773" />
          </mxGeometry>
        </mxCell>
        <mxCell id="2168" value="" parent="1" style="edgeStyle=elbowEdgeStyle;elbow=horizontal;endArrow=none;html=1;strokeColor=#23445D;endFill=0;strokeWidth=4;rounded=1" target="2108" edge="1">
          <mxGeometry as="geometry" height="100" width="100" relative="1">
            <mxPoint as="sourcePoint" y="212" x="1244" />
            <mxPoint as="targetPoint" y="254.08333333333337" x="1244.2777777777778" />
          </mxGeometry>
        </mxCell>
        <mxCell id="2169" value="" parent="1" style="edgeStyle=elbowEdgeStyle;elbow=horizontal;endArrow=none;html=1;strokeColor=#23445D;endFill=0;strokeWidth=4;rounded=1" edge="1" source="2108">
          <mxGeometry as="geometry" height="100" width="100" relative="1">
            <mxPoint as="sourcePoint" y="303.00000000000005" x="1244" />
            <mxPoint as="targetPoint" y="345.0833333333335" x="1244.2777777777773" />
          </mxGeometry>
        </mxCell>
        <mxCell id="2170" value="" parent="1" style="elbow=horizontal;endArrow=none;html=1;strokeColor=#23445D;endFill=0;strokeWidth=4;rounded=1" target="2138" edge="1" source="2108">
          <mxGeometry as="geometry" height="100" width="100" relative="1">
            <mxPoint as="sourcePoint" y="198.00000000000006" x="1210" />
            <mxPoint as="targetPoint" y="240.08333333333337" x="1210.2777777777778" />
          </mxGeometry>
        </mxCell>
        <mxCell id="2171" value="" parent="1" style="elbow=horizontal;endArrow=none;html=1;strokeColor=#23445D;endFill=0;strokeWidth=4;rounded=1" target="2111" edge="1" source="2108">
          <mxGeometry as="geometry" height="100" width="100" relative="1">
            <mxPoint as="sourcePoint" y="208.00000000000006" x="1220" />
            <mxPoint as="targetPoint" y="250.08333333333337" x="1220.2777777777778" />
          </mxGeometry>
        </mxCell>
        <mxCell id="2172" parent="1" style="edgeStyle=none;rounded=1;html=1;strokeColor=#23445D;endArrow=none;endFill=0;strokeWidth=4" target="2114" edge="1" source="2112">
          <mxGeometry as="geometry" relative="1" />
        </mxCell>
        <mxCell id="2173" parent="1" style="edgeStyle=none;rounded=1;html=1;strokeColor=#23445D;endArrow=none;endFill=0;strokeWidth=4" target="2116" edge="1" source="2112">
          <mxGeometry as="geometry" relative="1" />
        </mxCell>
        <mxCell id="2174" parent="1" style="edgeStyle=none;rounded=1;html=1;strokeColor=#23445D;endArrow=none;endFill=0;strokeWidth=4" target="2132" edge="1" source="2112">
          <mxGeometry as="geometry" relative="1">
            <mxPoint as="sourcePoint" y="380" x="750" />
          </mxGeometry>
        </mxCell>
        <mxCell id="2175" parent="1" style="edgeStyle=none;rounded=1;html=1;strokeColor=#23445D;endArrow=none;endFill=0;strokeWidth=4" target="2115" edge="1" source="2113">
          <mxGeometry as="geometry" relative="1" />
        </mxCell>
        <mxCell id="2176" parent="1" style="edgeStyle=none;rounded=1;html=1;strokeColor=#23445D;endArrow=none;endFill=0;strokeWidth=4" target="2117" edge="1" source="2113">
          <mxGeometry as="geometry" relative="1" />
        </mxCell>
        <mxCell id="2177" parent="1" style="edgeStyle=none;rounded=1;html=1;strokeColor=#23445D;endArrow=none;endFill=0;strokeWidth=4" target="2133" edge="1" source="2113">
          <mxGeometry as="geometry" relative="1" />
        </mxCell>
        <mxCell id="2178" value="" parent="1" style="edgeStyle=elbowEdgeStyle;elbow=horizontal;endArrow=none;html=1;strokeColor=#23445D;endFill=0;strokeWidth=4;rounded=1" target="2112" edge="1">
          <mxGeometry as="geometry" height="100" width="100" relative="1">
            <mxPoint as="sourcePoint" y="345" x="663" />
            <mxPoint as="targetPoint" y="387.08333333333337" x="663.2777777777778" />
          </mxGeometry>
        </mxCell>
        <mxCell id="2179" value="" parent="1" style="edgeStyle=elbowEdgeStyle;elbow=horizontal;endArrow=none;html=1;strokeColor=#23445D;endFill=0;strokeWidth=4;rounded=1" target="2113" edge="1">
          <mxGeometry as="geometry" height="100" width="100" relative="1">
            <mxPoint as="sourcePoint" y="345" x="1272" />
            <mxPoint as="targetPoint" y="387.08333333333337" x="1272.2777777777778" />
          </mxGeometry>
        </mxCell>
        <mxCell id="2180" parent="1" style="edgeStyle=orthogonalEdgeStyle;rounded=1;html=1;strokeColor=#23445D;endArrow=none;endFill=0;strokeWidth=4" target="2126" edge="1" source="2114">
          <mxGeometry as="geometry" relative="1">
            <Array as="points">
              <mxPoint y="559" x="193" />
            </Array>
          </mxGeometry>
        </mxCell>
        <mxCell id="2181" parent="1" style="edgeStyle=orthogonalEdgeStyle;rounded=1;html=1;strokeColor=#23445D;endArrow=none;endFill=0;strokeWidth=4" target="2128" edge="1" source="2114">
          <mxGeometry as="geometry" relative="1">
            <Array as="points">
              <mxPoint y="629" x="193" />
            </Array>
          </mxGeometry>
        </mxCell>
        <mxCell id="2182" parent="1" style="edgeStyle=orthogonalEdgeStyle;rounded=1;html=1;strokeColor=#23445D;endArrow=none;endFill=0;strokeWidth=4" target="2129" edge="1" source="2114">
          <mxGeometry as="geometry" relative="1">
            <Array as="points">
              <mxPoint y="709" x="193" />
            </Array>
          </mxGeometry>
        </mxCell>
        <mxCell id="2183" parent="1" style="edgeStyle=orthogonalEdgeStyle;rounded=1;html=1;strokeColor=#23445D;endArrow=none;endFill=0;strokeWidth=4" target="2130" edge="1" source="2114">
          <mxGeometry as="geometry" relative="1">
            <Array as="points">
              <mxPoint y="779" x="193" />
            </Array>
          </mxGeometry>
        </mxCell>
        <mxCell id="2184" parent="1" style="edgeStyle=orthogonalEdgeStyle;rounded=1;html=1;strokeColor=#23445D;endArrow=none;endFill=0;strokeWidth=4" target="2120" edge="1" source="2114">
          <mxGeometry as="geometry" relative="1">
            <Array as="points">
              <mxPoint y="572" x="193" />
            </Array>
          </mxGeometry>
        </mxCell>
        <mxCell id="2185" parent="1" style="edgeStyle=orthogonalEdgeStyle;rounded=1;html=1;strokeColor=#23445D;endArrow=none;endFill=0;strokeWidth=4" target="2121" edge="1" source="2114">
          <mxGeometry as="geometry" relative="1">
            <Array as="points">
              <mxPoint y="640" x="193" />
            </Array>
          </mxGeometry>
        </mxCell>
        <mxCell id="2186" parent="1" style="edgeStyle=orthogonalEdgeStyle;rounded=1;html=1;strokeColor=#23445D;endArrow=none;endFill=0;strokeWidth=4" target="2123" edge="1" source="2114">
          <mxGeometry as="geometry" relative="1">
            <Array as="points">
              <mxPoint y="722" x="193" />
            </Array>
          </mxGeometry>
        </mxCell>
        <mxCell id="2187" parent="1" style="edgeStyle=orthogonalEdgeStyle;rounded=1;html=1;strokeColor=#23445D;endArrow=none;endFill=0;strokeWidth=4" target="2125" edge="1" source="2114">
          <mxGeometry as="geometry" relative="1">
            <Array as="points">
              <mxPoint y="799" x="193" />
            </Array>
          </mxGeometry>
        </mxCell>
        <mxCell id="2188" parent="1" style="rounded=1;html=1;strokeColor=#23445D;endArrow=none;endFill=0;strokeWidth=4" target="2131" edge="1" source="2115">
          <mxGeometry as="geometry" relative="1" />
        </mxCell>
        <mxCell id="2189" parent="1" style="rounded=1;html=1;strokeColor=#23445D;endArrow=none;endFill=0;strokeWidth=4" target="2119" edge="1" source="2116">
          <mxGeometry as="geometry" relative="1" />
        </mxCell>
        <mxCell id="2190" parent="1" style="rounded=1;html=1;strokeColor=#23445D;endArrow=none;endFill=0;strokeWidth=4" target="2118" edge="1" source="2116">
          <mxGeometry as="geometry" relative="1" />
        </mxCell>
        <mxCell id="2191" value="" parent="1" vertex="1" style="line;html=1;strokeColor=#23445D;">
          <mxGeometry as="geometry" height="10" width="245" y="925" x="355" />
        </mxCell>
        <mxCell id="2192" parent="1" style="rounded=1;html=1;entryX=0.224;entryY=0.5;entryPerimeter=0;strokeColor=#23445D;endArrow=none;endFill=0;strokeWidth=4" target="2191" edge="1" source="2118">
          <mxGeometry as="geometry" relative="1" />
        </mxCell>
        <mxCell id="2193" parent="1" style="edgeStyle=orthogonalEdgeStyle;rounded=1;html=1;entryX=0.714;entryY=0.5;entryPerimeter=0;strokeColor=#23445D;endArrow=none;endFill=0;strokeWidth=4" edge="1" source="2119">
          <mxGeometry as="geometry" relative="1">
            <mxPoint as="sourcePoint" y="837" x="533" />
            <mxPoint as="targetPoint" y="930.3333333333335" x="533.666666666667" />
            <Array as="points">
              <mxPoint y="917" x="534" />
              <mxPoint y="917" x="533" />
            </Array>
          </mxGeometry>
        </mxCell>
        <mxCell id="2194" parent="1" style="edgeStyle=orthogonalEdgeStyle;rounded=1;html=1;strokeColor=#23445D;endArrow=none;endFill=0;strokeWidth=4" target="2140" edge="1" source="2117">
          <mxGeometry as="geometry" relative="1">
            <Array as="points">
              <mxPoint y="566" x="1260" />
            </Array>
          </mxGeometry>
        </mxCell>
        <mxCell id="2195" parent="1" style="edgeStyle=orthogonalEdgeStyle;rounded=1;html=1;strokeColor=#23445D;endArrow=none;endFill=0;strokeWidth=4" target="2142" edge="1" source="2117">
          <mxGeometry as="geometry" relative="1">
            <Array as="points">
              <mxPoint y="636" x="1260" />
            </Array>
          </mxGeometry>
        </mxCell>
        <mxCell id="2196" parent="1" style="edgeStyle=orthogonalEdgeStyle;rounded=1;html=1;strokeColor=#23445D;endArrow=none;endFill=0;strokeWidth=4" target="2143" edge="1" source="2117">
          <mxGeometry as="geometry" relative="1">
            <Array as="points">
              <mxPoint y="706" x="1260" />
            </Array>
          </mxGeometry>
        </mxCell>
        <mxCell id="2197" parent="1" style="edgeStyle=orthogonalEdgeStyle;rounded=1;html=1;strokeColor=#23445D;endArrow=none;endFill=0;strokeWidth=4" target="2144" edge="1" source="2117">
          <mxGeometry as="geometry" relative="1">
            <Array as="points">
              <mxPoint y="786" x="1260" />
            </Array>
          </mxGeometry>
        </mxCell>
        <mxCell id="2198" parent="1" style="edgeStyle=orthogonalEdgeStyle;rounded=1;html=1;strokeColor=#23445D;endArrow=none;endFill=0;strokeWidth=4" target="2141" edge="1" source="2117">
          <mxGeometry as="geometry" relative="1">
            <Array as="points">
              <mxPoint y="856" x="1260" />
            </Array>
          </mxGeometry>
        </mxCell>
        <mxCell id="2199" parent="1" style="edgeStyle=orthogonalEdgeStyle;rounded=1;html=1;strokeColor=#23445D;endArrow=none;endFill=0;strokeWidth=4" target="2145" edge="1" source="2117">
          <mxGeometry as="geometry" relative="1">
            <Array as="points">
              <mxPoint y="926" x="1260" />
            </Array>
          </mxGeometry>
        </mxCell>
        <mxCell id="2200" parent="1" style="rounded=1;html=1;strokeColor=#23445D;endArrow=none;endFill=0;strokeWidth=4" target="2134" edge="1" source="2132">
          <mxGeometry as="geometry" relative="1" />
        </mxCell>
        <mxCell id="2201" parent="1" style="rounded=1;html=1;strokeColor=#23445D;endArrow=none;endFill=0;strokeWidth=4" target="2135" edge="1" source="2133">
          <mxGeometry as="geometry" relative="1" />
        </mxCell>
        <mxCell id="2202" parent="1" style="rounded=1;html=1;strokeColor=#23445D;endArrow=none;endFill=0;strokeWidth=4" target="2136" edge="1" source="2134">
          <mxGeometry as="geometry" relative="1" />
        </mxCell>
        <mxCell id="2203" parent="1" style="edgeStyle=orthogonalEdgeStyle;rounded=1;html=1;strokeColor=#23445D;endArrow=none;endFill=0;strokeWidth=4" target="2147" edge="1" source="2136">
          <mxGeometry as="geometry" relative="1">
            <Array as="points">
              <mxPoint y="799" x="796" />
            </Array>
          </mxGeometry>
        </mxCell>
        <mxCell id="2204" parent="1" style="edgeStyle=orthogonalEdgeStyle;rounded=1;html=1;strokeColor=#23445D;endArrow=none;endFill=0;strokeWidth=4" target="2146" edge="1" source="2136">
          <mxGeometry as="geometry" relative="1">
            <Array as="points">
              <mxPoint y="869" x="796" />
            </Array>
          </mxGeometry>
        </mxCell>
        <mxCell id="2205" parent="1" style="edgeStyle=orthogonalEdgeStyle;rounded=1;html=1;strokeColor=#23445D;endArrow=none;endFill=0;strokeWidth=4" target="2148" edge="1" source="2136">
          <mxGeometry as="geometry" relative="1">
            <Array as="points">
              <mxPoint y="939" x="796" />
            </Array>
          </mxGeometry>
        </mxCell>
        <mxCell id="2206" parent="1" style="edgeStyle=orthogonalEdgeStyle;rounded=1;html=1;strokeColor=#23445D;endArrow=none;endFill=0;strokeWidth=4" target="2151" edge="1" source="2136">
          <mxGeometry as="geometry" relative="1">
            <Array as="points">
              <mxPoint y="799" x="796" />
            </Array>
          </mxGeometry>
        </mxCell>
        <mxCell id="2207" parent="1" style="edgeStyle=orthogonalEdgeStyle;rounded=1;html=1;strokeColor=#23445D;endArrow=none;endFill=0;strokeWidth=4" target="2149" edge="1" source="2136">
          <mxGeometry as="geometry" relative="1">
            <Array as="points">
              <mxPoint y="879" x="796" />
            </Array>
          </mxGeometry>
        </mxCell>
        <mxCell id="2208" parent="1" style="edgeStyle=orthogonalEdgeStyle;rounded=1;html=1;strokeColor=#23445D;endArrow=none;endFill=0;strokeWidth=4" target="2150" edge="1" source="2136">
          <mxGeometry as="geometry" relative="1">
            <Array as="points">
              <mxPoint y="950" x="796" />
            </Array>
          </mxGeometry>
        </mxCell>
        <mxCell id="2209" parent="1" style="edgeStyle=orthogonalEdgeStyle;rounded=1;html=1;strokeColor=#23445D;endArrow=none;endFill=0;strokeWidth=4" target="2127" edge="1" source="2114">
          <mxGeometry as="geometry" relative="1">
            <Array as="points">
              <mxPoint y="859" x="193" />
            </Array>
          </mxGeometry>
        </mxCell>
        <mxCell id="2210" parent="1" style="edgeStyle=orthogonalEdgeStyle;rounded=1;html=1;strokeColor=#23445D;endArrow=none;endFill=0;strokeWidth=4" target="2139" edge="1" source="2114">
          <mxGeometry as="geometry" relative="1">
            <Array as="points">
              <mxPoint y="929" x="193" />
            </Array>
          </mxGeometry>
        </mxCell>
        <mxCell id="2211" parent="1" style="edgeStyle=orthogonalEdgeStyle;rounded=1;html=1;strokeColor=#23445D;endArrow=none;endFill=0;strokeWidth=4" target="2122" edge="1" source="2114">
          <mxGeometry as="geometry" relative="1">
            <Array as="points">
              <mxPoint y="869" x="193" />
            </Array>
          </mxGeometry>
        </mxCell>
        <mxCell id="2212" parent="1" style="edgeStyle=orthogonalEdgeStyle;rounded=1;html=1;strokeColor=#23445D;endArrow=none;endFill=0;strokeWidth=4" target="2124" edge="1" source="2114">
          <mxGeometry as="geometry" relative="1">
            <Array as="points">
              <mxPoint y="947" x="193" />
            </Array>
          </mxGeometry>
        </mxCell>
        <mxCell id="2213" value="" parent="1" vertex="1" style="shape=mxgraph.cisco.misc.access_point;html=1;dashed=0;fillColor=#10739E;strokeColor=#ffffff;strokeWidth=2;verticalLabelPosition=bottom;verticalAlign=top;fontFamily=Helvetica;fontSize=36;fontColor=#FFB366">
          <mxGeometry as="geometry" height="34" width="79" y="865" x="1517" />
        </mxCell>
        <mxCell id="2214" value="" parent="1" vertex="1" style="shape=mxgraph.cisco.misc.access_point;html=1;dashed=0;fillColor=#10739E;strokeColor=#ffffff;strokeWidth=2;verticalLabelPosition=bottom;verticalAlign=top;fontFamily=Helvetica;fontSize=36;fontColor=#FFB366">
          <mxGeometry as="geometry" height="34" width="75" y="939" x="1517" />
        </mxCell>
        <mxCell id="2215" value="" parent="1" vertex="1" style="shape=mxgraph.cisco.misc.access_point;html=1;dashed=0;fillColor=#10739E;strokeColor=#ffffff;strokeWidth=2;verticalLabelPosition=bottom;verticalAlign=top;fontFamily=Helvetica;fontSize=36;fontColor=#FFB366">
          <mxGeometry as="geometry" height="34" width="75" y="788" x="1517" />
        </mxCell>
        <mxCell id="2216" value="" parent="1" vertex="1" style="shape=mxgraph.cisco.hubs_and_gateways.100baset_hub;html=1;dashed=0;fillColor=#10739E;strokeColor=#ffffff;strokeWidth=2;verticalLabelPosition=bottom;verticalAlign=top;fontFamily=Helvetica;fontSize=36;fontColor=#FFB366">
          <mxGeometry as="geometry" height="45" width="90" y="858" x="1371" />
        </mxCell>
        <mxCell id="2217" value="" parent="1" vertex="1" style="shape=mxgraph.cisco.hubs_and_gateways.100baset_hub;html=1;dashed=0;fillColor=#10739E;strokeColor=#ffffff;strokeWidth=2;verticalLabelPosition=bottom;verticalAlign=top;fontFamily=Helvetica;fontSize=36;fontColor=#FFB366">
          <mxGeometry as="geometry" height="45" width="90" y="785" x="1371" />
        </mxCell>
        <mxCell id="2218" value="" parent="1" vertex="1" style="shape=mxgraph.cisco.hubs_and_gateways.100baset_hub;html=1;dashed=0;fillColor=#10739E;strokeColor=#ffffff;strokeWidth=2;verticalLabelPosition=bottom;verticalAlign=top;fontFamily=Helvetica;fontSize=36;fontColor=#FFB366">
          <mxGeometry as="geometry" height="45" width="90" y="928" x="1371" />
        </mxCell>
        <mxCell id="2219" parent="1" style="edgeStyle=orthogonalEdgeStyle;rounded=1;html=1;strokeColor=#23445D;endArrow=none;endFill=0;strokeWidth=4" target="2137" edge="1" source="2135">
          <mxGeometry as="geometry" relative="1" />
        </mxCell>
        <mxCell id="2220" parent="1" style="edgeStyle=orthogonalEdgeStyle;rounded=1;html=1;strokeColor=#23445D;endArrow=none;endFill=0;strokeWidth=4" target="2217" edge="1" source="2137">
          <mxGeometry as="geometry" relative="1">
            <Array as="points">
              <mxPoint y="810" x="1482" />
            </Array>
          </mxGeometry>
        </mxCell>
        <mxCell id="2221" parent="1" style="edgeStyle=orthogonalEdgeStyle;rounded=1;html=1;strokeColor=#23445D;endArrow=none;endFill=0;strokeWidth=4" target="2216" edge="1" source="2137">
          <mxGeometry as="geometry" relative="1">
            <Array as="points">
              <mxPoint y="880" x="1482" />
            </Array>
          </mxGeometry>
        </mxCell>
        <mxCell id="2222" parent="1" style="edgeStyle=orthogonalEdgeStyle;rounded=1;html=1;strokeColor=#23445D;endArrow=none;endFill=0;strokeWidth=4" target="2218" edge="1" source="2137">
          <mxGeometry as="geometry" relative="1">
            <Array as="points">
              <mxPoint y="950" x="1482" />
            </Array>
          </mxGeometry>
        </mxCell>
        <mxCell id="2223" parent="1" style="edgeStyle=orthogonalEdgeStyle;rounded=1;html=1;strokeColor=#23445D;endArrow=none;endFill=0;strokeWidth=4" target="2215" edge="1" source="2137">
          <mxGeometry as="geometry" relative="1">
            <Array as="points">
              <mxPoint y="800" x="1482" />
            </Array>
          </mxGeometry>
        </mxCell>
        <mxCell id="2224" parent="1" style="edgeStyle=orthogonalEdgeStyle;rounded=1;html=1;strokeColor=#23445D;endArrow=none;endFill=0;strokeWidth=4" target="2213" edge="1" source="2137">
          <mxGeometry as="geometry" relative="1">
            <Array as="points">
              <mxPoint y="870" x="1482" />
            </Array>
          </mxGeometry>
        </mxCell>
        <mxCell id="2225" parent="1" style="edgeStyle=orthogonalEdgeStyle;rounded=1;html=1;strokeColor=#23445D;endArrow=none;endFill=0;strokeWidth=4" target="2214" edge="1" source="2137">
          <mxGeometry as="geometry" relative="1">
            <Array as="points">
              <mxPoint y="950" x="1482" />
            </Array>
          </mxGeometry>
        </mxCell>
        <mxCell id="2226" value="&lt;font color=&quot;#23445d&quot;&gt;Management and core servers&lt;/font&gt;" parent="1" vertex="1" style="rounded=1;whiteSpace=wrap;html=1;strokeColor=none;fillColor=none;fontSize=14;fontColor=#742B21;align=center;fontStyle=1">
          <mxGeometry as="geometry" height="19" width="225" y="42" x="263" />
        </mxCell>
        <mxCell id="2227" value="&lt;font color=&quot;#23445d&quot;&gt;External servers&lt;/font&gt;" parent="1" vertex="1" style="rounded=1;whiteSpace=wrap;html=1;strokeColor=none;fillColor=none;fontSize=14;fontColor=#742B21;align=center;fontStyle=1">
          <mxGeometry as="geometry" height="19" width="143" y="42" x="1315" />
        </mxCell>
        <mxCell id="2228" value="&lt;font color=&quot;#23445d&quot;&gt;WAN&lt;/font&gt;" parent="1" vertex="1" style="rounded=1;whiteSpace=wrap;html=1;strokeColor=none;fillColor=none;fontSize=14;fontColor=#742B21;align=center;fontStyle=1">
          <mxGeometry as="geometry" height="19" width="73" y="434" x="1447" />
        </mxCell>
        <mxCell id="2229" value="Access 4" parent="1" vertex="1" style="rounded=1;whiteSpace=wrap;html=1;strokeColor=none;fillColor=none;fontSize=14;fontColor=#23445D;align=center;fontStyle=1">
          <mxGeometry as="geometry" height="19" width="98" y="991" x="1436" />
        </mxCell>
        <mxCell id="2230" value="Access 2" parent="1" vertex="1" style="rounded=1;whiteSpace=wrap;html=1;strokeColor=none;fillColor=none;fontSize=14;fontColor=#23445D;align=center;fontStyle=1">
          <mxGeometry as="geometry" height="19" width="96" y="1113" x="745" />
        </mxCell>
        <mxCell id="2231" value="Access 3" parent="1" vertex="1" style="rounded=1;whiteSpace=wrap;html=1;strokeColor=none;fillColor=none;fontSize=14;fontColor=#23445D;align=center;fontStyle=1">
          <mxGeometry as="geometry" height="20" width="78" y="1112" x="1167" />
        </mxCell>
        <mxCell id="2232" value="&lt;font color=&quot;#23445d&quot;&gt;Expansion&lt;/font&gt;" parent="1" vertex="1" style="rounded=1;whiteSpace=wrap;html=1;strokeColor=none;fillColor=none;fontSize=14;fontColor=#742B21;align=center;fontStyle=1">
          <mxGeometry as="geometry" height="19" width="109" y="953" x="417" />
        </mxCell>
        <mxCell id="2233" value="Access 1" parent="1" vertex="1" style="rounded=1;whiteSpace=wrap;html=1;strokeColor=none;fillColor=none;fontSize=14;fontColor=#23445D;align=center;fontStyle=1">
          <mxGeometry as="geometry" height="19" width="93" y="1130" x="142" />
        </mxCell>
        <mxCell id="2234" value="" parent="1" vertex="1" style="shape=mxgraph.cisco.hubs_and_gateways.100baset_hub;html=1;dashed=0;fillColor=#10739E;strokeColor=#ffffff;strokeWidth=2;verticalLabelPosition=bottom;verticalAlign=top;fontFamily=Helvetica;fontSize=36;fontColor=#FFB366">
          <mxGeometry as="geometry" height="45" width="90" y="1071" x="59" />
        </mxCell>
        <mxCell id="2235" value="" parent="1" vertex="1" style="shape=mxgraph.cisco.hubs_and_gateways.100baset_hub;html=1;dashed=0;fillColor=#10739E;strokeColor=#ffffff;strokeWidth=2;verticalLabelPosition=bottom;verticalAlign=top;fontFamily=Helvetica;fontSize=36;fontColor=#FFB366">
          <mxGeometry as="geometry" height="45" width="90" y="998" x="59" />
        </mxCell>
        <mxCell id="2236" value="" parent="1" vertex="1" style="shape=mxgraph.cisco.misc.access_point;html=1;dashed=0;fillColor=#10739E;strokeColor=#ffffff;strokeWidth=2;verticalLabelPosition=bottom;verticalAlign=top;fontFamily=Helvetica;fontSize=36;fontColor=#FFB366">
          <mxGeometry as="geometry" height="34" width="75" y="1000" x="223" />
        </mxCell>
        <mxCell id="2237" value="" parent="1" vertex="1" style="shape=mxgraph.cisco.misc.access_point;html=1;dashed=0;fillColor=#10739E;strokeColor=#ffffff;strokeWidth=2;verticalLabelPosition=bottom;verticalAlign=top;fontFamily=Helvetica;fontSize=36;fontColor=#FFB366">
          <mxGeometry as="geometry" height="34" width="75" y="1078" x="223" />
        </mxCell>
        <mxCell id="2238" parent="1" style="edgeStyle=orthogonalEdgeStyle;rounded=1;html=1;endArrow=none;endFill=0;strokeColor=#23445D;strokeWidth=4;fontSize=14;fontColor=#990000" target="2237" edge="1" source="2114">
          <mxGeometry as="geometry" relative="1">
            <Array as="points">
              <mxPoint y="1095" x="193" />
            </Array>
          </mxGeometry>
        </mxCell>
        <mxCell id="2239" parent="1" style="edgeStyle=orthogonalEdgeStyle;rounded=1;html=1;endArrow=none;endFill=0;strokeColor=#23445D;strokeWidth=4;fontSize=14;fontColor=#990000" target="2236" edge="1" source="2114">
          <mxGeometry as="geometry" relative="1">
            <Array as="points">
              <mxPoint y="1017" x="193" />
            </Array>
          </mxGeometry>
        </mxCell>
        <mxCell id="2240" parent="1" style="edgeStyle=orthogonalEdgeStyle;rounded=1;html=1;endArrow=none;endFill=0;strokeColor=#23445D;strokeWidth=4;fontSize=14;fontColor=#990000" target="2235" edge="1" source="2114">
          <mxGeometry as="geometry" relative="1">
            <Array as="points">
              <mxPoint y="1010" x="193" />
            </Array>
          </mxGeometry>
        </mxCell>
        <mxCell id="2241" parent="1" style="edgeStyle=orthogonalEdgeStyle;rounded=1;html=1;endArrow=none;endFill=0;strokeColor=#23445D;strokeWidth=4;fontSize=14;fontColor=#990000" target="2234" edge="1" source="2114">
          <mxGeometry as="geometry" relative="1">
            <Array as="points">
              <mxPoint y="1080" x="193" />
            </Array>
          </mxGeometry>
        </mxCell>
        <mxCell id="2242" value="" parent="1" vertex="1" style="shape=mxgraph.cisco.switches.workgroup_switch;html=1;dashed=0;fillColor=#10739E;strokeColor=#ffffff;strokeWidth=2;verticalLabelPosition=bottom;verticalAlign=top;fontFamily=Helvetica;fontSize=36;fontColor=#FFB366">
          <mxGeometry as="geometry" height="50" width="101" y="782" x="421" />
        </mxCell>
        <mxCell id="2243" parent="1" style="rounded=1;html=1;entryX=0.224;entryY=0.5;entryPerimeter=0;strokeColor=#23445D;endArrow=none;endFill=0;strokeWidth=4" edge="1" source="2242">
          <mxGeometry as="geometry" relative="1">
            <mxPoint as="sourcePoint" y="746.2427745664738" x="472.5606936416185" />
            <mxPoint as="targetPoint" y="930.057803468208" x="470.8265895953755" />
          </mxGeometry>
        </mxCell>
        <mxCell id="2244" parent="1" style="rounded=1;html=1;endArrow=none;endFill=0;strokeColor=#23445D;strokeWidth=4;fontSize=14;fontColor=#990000" target="2242" edge="1" source="2116">
          <mxGeometry as="geometry" relative="1" />
        </mxCell>
        <mxCell id="2245" value="" parent="1" vertex="1" style="shape=mxgraph.cisco.hubs_and_gateways.100baset_hub;html=1;dashed=0;fillColor=#10739E;strokeColor=#ffffff;strokeWidth=2;verticalLabelPosition=bottom;verticalAlign=top;fontFamily=Helvetica;fontSize=36;fontColor=#FFB366">
          <mxGeometry as="geometry" height="45" width="90" y="991" x="672" />
        </mxCell>
        <mxCell id="2246" value="" parent="1" vertex="1" style="shape=mxgraph.cisco.hubs_and_gateways.100baset_hub;html=1;dashed=0;fillColor=#10739E;strokeColor=#ffffff;strokeWidth=2;verticalLabelPosition=bottom;verticalAlign=top;fontFamily=Helvetica;fontSize=36;fontColor=#FFB366">
          <mxGeometry as="geometry" height="45" width="90" y="1061" x="672" />
        </mxCell>
        <mxCell id="2247" value="" parent="1" vertex="1" style="shape=mxgraph.cisco.misc.access_point;html=1;dashed=0;fillColor=#10739E;strokeColor=#ffffff;strokeWidth=2;verticalLabelPosition=bottom;verticalAlign=top;fontFamily=Helvetica;fontSize=36;fontColor=#FFB366">
          <mxGeometry as="geometry" height="34" width="79" y="991" x="813" />
        </mxCell>
        <mxCell id="2248" value="" parent="1" vertex="1" style="shape=mxgraph.cisco.misc.access_point;html=1;dashed=0;fillColor=#10739E;strokeColor=#ffffff;strokeWidth=2;verticalLabelPosition=bottom;verticalAlign=top;fontFamily=Helvetica;fontSize=36;fontColor=#FFB366">
          <mxGeometry as="geometry" height="34" width="75" y="1065" x="813" />
        </mxCell>
        <mxCell id="2249" parent="1" style="edgeStyle=orthogonalEdgeStyle;rounded=1;html=1;endArrow=none;endFill=0;strokeColor=#23445D;strokeWidth=4;fontSize=14;fontColor=#990000" target="2247" edge="1" source="2136">
          <mxGeometry as="geometry" relative="1">
            <Array as="points">
              <mxPoint y="1008" x="795" />
            </Array>
          </mxGeometry>
        </mxCell>
        <mxCell id="2250" parent="1" style="edgeStyle=orthogonalEdgeStyle;rounded=1;html=1;endArrow=none;endFill=0;strokeColor=#23445D;strokeWidth=4;fontSize=14;fontColor=#990000" target="2248" edge="1" source="2136">
          <mxGeometry as="geometry" relative="1">
            <Array as="points">
              <mxPoint y="1082" x="795" />
            </Array>
          </mxGeometry>
        </mxCell>
        <mxCell id="2251" parent="1" style="edgeStyle=orthogonalEdgeStyle;rounded=1;html=1;endArrow=none;endFill=0;strokeColor=#23445D;strokeWidth=4;fontSize=14;fontColor=#990000" target="2245" edge="1" source="2136">
          <mxGeometry as="geometry" relative="1">
            <Array as="points">
              <mxPoint y="1000" x="795" />
            </Array>
          </mxGeometry>
        </mxCell>
        <mxCell id="2252" parent="1" style="edgeStyle=orthogonalEdgeStyle;rounded=1;html=1;endArrow=none;endFill=0;strokeColor=#23445D;strokeWidth=4;fontSize=14;fontColor=#990000" target="2246" edge="1" source="2136">
          <mxGeometry as="geometry" relative="1">
            <Array as="points">
              <mxPoint y="1070" x="795" />
            </Array>
          </mxGeometry>
        </mxCell>
        <mxCell id="2253" value="" parent="1" vertex="1" style="shape=mxgraph.cisco.hubs_and_gateways.100baset_hub;html=1;dashed=0;fillColor=#10739E;strokeColor=#ffffff;strokeWidth=2;verticalLabelPosition=bottom;verticalAlign=top;fontFamily=Helvetica;fontSize=36;fontColor=#FFB366">
          <mxGeometry as="geometry" height="45" width="90" y="984" x="1137" />
        </mxCell>
        <mxCell id="2254" value="" parent="1" vertex="1" style="shape=mxgraph.cisco.hubs_and_gateways.100baset_hub;html=1;dashed=0;fillColor=#10739E;strokeColor=#ffffff;strokeWidth=2;verticalLabelPosition=bottom;verticalAlign=top;fontFamily=Helvetica;fontSize=36;fontColor=#FFB366">
          <mxGeometry as="geometry" height="45" width="90" y="1054" x="1137" />
        </mxCell>
        <mxCell id="2255" parent="1" style="edgeStyle=orthogonalEdgeStyle;rounded=1;html=1;endArrow=none;endFill=0;strokeColor=#23445D;strokeWidth=4;fontSize=14;fontColor=#990000" target="2253" edge="1" source="2117">
          <mxGeometry as="geometry" relative="1">
            <Array as="points">
              <mxPoint y="1000" x="1260" />
            </Array>
          </mxGeometry>
        </mxCell>
        <mxCell id="2256" parent="1" style="edgeStyle=orthogonalEdgeStyle;rounded=1;html=1;endArrow=none;endFill=0;strokeColor=#23445D;strokeWidth=4;fontSize=14;fontColor=#990000" target="2254" edge="1" source="2117">
          <mxGeometry as="geometry" relative="1">
            <Array as="points">
              <mxPoint y="1070" x="1260" />
            </Array>
          </mxGeometry>
        </mxCell>
        <mxCell id="2257" parent="1" style="edgeStyle=orthogonalEdgeStyle;curved=1;rounded=0;jumpStyle=none;html=1;exitX=0.75;exitY=0;entryX=0.75;entryY=0;shadow=0;labelBackgroundColor=#ffffff;startArrow=none;startFill=0;endArrow=none;endFill=0;endSize=10;jettySize=auto;orthogonalLoop=1;strokeColor=#23445D;strokeWidth=2;fillColor=#F08705;fontFamily=Helvetica;fontSize=25;fontColor=#23445D;align=left;" target="2087" edge="1" source="2087">
          <mxGeometry as="geometry" relative="1" />
        </mxCell>
        <mxCell id="4Zgq2gU1FqoBuu8UMykV-2257" value="" parent="1" vertex="1" style="shape=mxgraph.cisco.computers_and_peripherals.ibm_mainframe;html=1;dashed=0;fillColor=#10739E;strokeColor=#ffffff;strokeWidth=2;verticalLabelPosition=bottom;verticalAlign=top;fontFamily=Helvetica;fontSize=36;fontColor=#FFB366">
          <mxGeometry as="geometry" height="70" width="50" y="270" x="128" />
        </mxCell>
      </root>
    </mxGraphModel>
  </diagram>
</mxfile>
